<?xml version="1.0" standalone="no"?>
<!DOCTYPE svg PUBLIC "-//W3C//DTD SVG 20010904//EN"
 "http://www.w3.org/TR/2001/REC-SVG-20010904/DTD/svg10.dtd">
<svg version="1.0" xmlns="http://www.w3.org/2000/svg"
 width="1008.000000pt" height="1008.000000pt" viewBox="0 0 1008.000000 1008.000000"
 preserveAspectRatio="xMidYMid meet">

<g transform="translate(0.000000,1008.000000) scale(0.100000,-0.100000)"
fill="#000000" stroke="none">
<path d="M5044 10057 c-49 -42 -39 -73 55 -174 90 -96 115 -112 179 -113 57 0
86 27 71 68 -13 39 -137 172 -196 211 -56 37 -73 38 -109 8z"/>
<path d="M4740 10048 c-11 -12 -20 -25 -20 -29 0 -4 -3 -15 -6 -23 -7 -18 142
-178 188 -202 41 -21 124 -18 147 5 30 30 16 57 -68 139 -132 128 -197 157
-241 110z"/>
<path d="M5363 10060 c-20 -8 -53 -56 -53 -78 0 -18 153 -198 183 -214 36 -21
117 -24 135 -6 30 30 5 80 -96 196 -82 93 -125 119 -169 102z"/>
<path d="M4446 10027 c-18 -18 -26 -37 -26 -59 0 -35 6 -41 174 -178 57 -47
186 -27 186 29 0 20 -119 134 -190 183 -75 52 -111 58 -144 25z"/>
<path d="M5664 10030 c-26 -10 -54 -48 -54 -71 0 -18 116 -182 154 -218 20
-19 40 -26 84 -29 66 -5 89 10 78 52 -15 62 -176 259 -221 270 -11 2 -30 1
-41 -4z"/>
<path d="M4164 10000 c-26 -10 -48 -62 -40 -92 3 -14 46 -52 108 -98 97 -71
106 -75 154 -74 58 0 104 24 104 53 0 10 -22 39 -49 64 -54 51 -196 147 -216
147 -8 0 -19 2 -27 4 -7 3 -22 1 -34 -4z"/>
<path d="M5955 9978 c-62 -34 -59 -66 20 -187 72 -112 95 -131 160 -139 76 -8
93 24 54 101 -36 69 -115 182 -149 211 -34 28 -54 32 -85 14z"/>
<path d="M3855 9926 c-17 -17 -25 -36 -25 -60 0 -33 5 -39 91 -97 124 -83 146
-92 208 -78 91 19 94 60 9 129 -65 52 -178 115 -225 125 -27 5 -37 2 -58 -19z"/>
<path d="M6225 9895 c-31 -30 -31 -55 -1 -103 13 -21 37 -65 54 -97 38 -75 65
-101 123 -115 58 -15 89 -2 89 36 0 47 -130 272 -169 293 -33 18 -70 12 -96
-14z"/>
<path d="M3561 9844 c-24 -30 -27 -73 -8 -95 6 -9 58 -42 115 -74 98 -55 106
-57 154 -52 105 13 129 64 56 118 -62 45 -236 129 -269 129 -18 0 -35 -9 -48
-26z"/>
<path d="M6528 9824 c-48 -26 -46 -53 14 -182 48 -105 58 -119 93 -136 21 -11
57 -20 80 -20 40 -1 40 -1 43 38 3 31 -8 62 -53 152 -55 111 -99 164 -133 164
-9 -1 -29 -7 -44 -16z"/>
<path d="M3283 9764 c-7 -3 -17 -20 -23 -38 -19 -59 -4 -75 129 -140 119 -58
122 -59 164 -47 61 18 87 38 87 66 0 33 -47 67 -169 121 -94 41 -151 52 -188
38z"/>
<path d="M6801 9714 c-17 -14 -31 -33 -31 -42 0 -10 21 -69 48 -132 51 -123
77 -153 148 -166 69 -13 79 23 38 138 -54 150 -107 228 -155 228 -9 0 -31 -12
-48 -26z"/>
<path d="M2996 9638 c-19 -27 -21 -94 -3 -105 14 -8 152 -67 210 -89 88 -33
208 47 150 98 -49 43 -242 118 -303 118 -29 0 -43 -6 -54 -22z"/>
<path d="M7076 9599 c-34 -27 -33 -44 9 -169 43 -128 55 -147 112 -172 61 -27
93 -14 93 36 0 33 -58 213 -86 268 -30 57 -82 73 -128 37z"/>
<path d="M2727 9512 c-20 -22 -23 -95 -4 -109 6 -5 64 -27 127 -48 126 -41
157 -42 218 -5 40 25 43 60 6 89 -36 28 -234 91 -287 91 -30 0 -49 -6 -60 -18z"/>
<path d="M7360 9472 c-46 -23 -48 -43 -12 -181 32 -119 45 -142 104 -172 45
-23 62 -24 78 -4 20 24 14 80 -21 195 -35 120 -53 154 -86 169 -29 13 -22 14
-63 -7z"/>
<path d="M5167 9388 l-118 -91 -119 81 c-65 45 -121 82 -123 82 -2 0 18 -61
44 -137 27 -75 49 -137 49 -138 0 -2 -52 -42 -115 -90 -63 -48 -115 -90 -115
-92 0 -3 66 -3 147 -2 l146 3 46 -132 c26 -72 49 -133 52 -136 3 -3 23 56 45
132 l41 137 133 7 c73 4 140 8 148 10 8 2 -40 40 -106 86 l-120 83 29 97 c52
171 58 192 56 191 -1 0 -55 -41 -120 -91z"/>
<path d="M2471 9373 c-11 -10 -24 -32 -27 -48 -10 -52 16 -71 154 -111 l123
-36 57 29 c50 25 57 32 60 61 3 30 0 34 -43 53 -58 26 -227 69 -270 69 -18 0
-42 -8 -54 -17z"/>
<path d="M7620 9322 c-45 -22 -47 -40 -21 -177 25 -126 30 -137 79 -170 49
-33 89 -33 104 1 23 51 -40 301 -87 342 -31 27 -31 26 -75 4z"/>
<path d="M3518 9135 c-102 -168 -73 -153 -224 -116 -71 17 -135 31 -142 31 -7
0 30 -50 83 -111 52 -61 94 -113 91 -117 -2 -4 -36 -60 -75 -124 -39 -64 -71
-119 -71 -121 0 -3 57 19 128 49 70 29 132 54 138 54 7 0 54 -49 105 -110 51
-60 94 -108 95 -107 2 1 -2 67 -8 145 -7 86 -8 146 -2 151 5 4 67 32 139 62
l129 54 -146 34 -147 34 -6 71 c-3 39 -9 107 -13 151 l-7 80 -67 -110z"/>
<path d="M6516 9129 c-4 -63 -9 -130 -13 -150 l-5 -36 -146 -34 -146 -35 141
-58 141 -59 -4 -36 c-8 -63 -22 -256 -20 -259 2 -1 45 47 96 108 51 60 98 110
104 110 7 0 70 -25 141 -55 70 -30 130 -55 131 -55 2 0 -32 57 -76 127 -75
123 -77 129 -62 150 10 12 52 62 95 112 43 50 72 91 65 91 -7 0 -69 -13 -136
-30 -68 -16 -127 -30 -132 -30 -5 0 -38 48 -74 108 -100 165 -92 163 -100 31z"/>
<path d="M2223 9218 c-33 -16 -44 -79 -20 -111 13 -19 206 -67 268 -67 53 0
121 51 117 88 -4 36 -50 58 -177 82 -112 22 -155 24 -188 8z"/>
<path d="M7861 9156 c-14 -8 -28 -21 -31 -30 -7 -22 25 -248 39 -275 13 -24
68 -66 97 -75 51 -15 66 52 44 188 -29 180 -72 235 -149 192z"/>
<path d="M1990 9043 c-29 -15 -36 -24 -38 -55 -4 -50 12 -76 51 -82 17 -3 75
-12 128 -21 108 -18 144 -11 194 39 54 54 22 90 -102 111 -153 26 -195 27
-233 8z"/>
<path d="M8101 8976 c-14 -8 -28 -21 -31 -30 -10 -30 16 -262 32 -285 22 -31
78 -71 100 -71 10 0 25 12 35 26 15 24 16 37 4 151 -20 201 -56 255 -140 209z"/>
<path d="M1775 8863 c-38 -10 -55 -34 -55 -78 0 -26 6 -48 15 -55 9 -7 57 -17
108 -22 150 -14 172 -13 212 12 84 52 83 110 -3 129 -58 12 -249 22 -277 14z"/>
<path d="M8324 8782 c-26 -17 -31 -51 -25 -172 7 -139 16 -165 74 -200 40 -25
42 -25 67 0 18 18 20 33 20 129 0 124 -13 207 -37 233 -16 18 -77 25 -99 10z"/>
<path d="M1553 8659 c-18 -5 -40 -20 -48 -33 -20 -29 -10 -83 19 -101 30 -19
243 -27 281 -11 29 12 95 78 95 94 0 22 -31 45 -71 53 -58 11 -235 10 -276 -2z"/>
<path d="M8562 8583 c-38 -7 -49 -40 -55 -163 -6 -133 1 -159 57 -208 41 -36
45 -37 70 -19 24 17 35 81 36 197 0 111 -12 163 -43 185 -22 15 -25 16 -65 8z"/>
<path d="M4805 8463 c-1061 -91 -1999 -644 -2584 -1523 -396 -596 -587 -1266
-568 -1985 8 -300 34 -485 104 -760 123 -480 335 -906 649 -1300 113 -141 378
-406 519 -519 534 -425 1131 -669 1818 -742 184 -19 599 -14 772 10 667 94
1253 351 1762 773 131 108 388 372 489 503 390 502 621 1049 711 1685 14 103
18 193 18 440 0 247 -4 337 -18 440 -91 640 -318 1180 -711 1685 -93 120 -342
379 -460 479 -538 457 -1179 732 -1881 806 -126 13 -502 18 -620 8z m695 -58
c648 -89 1191 -319 1693 -718 124 -98 361 -329 465 -452 368 -437 621 -954
732 -1495 56 -273 64 -368 64 -695 0 -327 -8 -422 -64 -695 -92 -448 -290
-898 -561 -1275 -229 -319 -547 -628 -863 -839 -451 -300 -922 -478 -1471
-552 -165 -22 -625 -26 -790 -6 -702 86 -1320 356 -1840 805 -811 699 -1248
1754 -1165 2813 35 442 137 824 325 1212 185 380 401 680 695 966 577 558
1285 877 2110 950 104 9 560 -4 670 -19z"/>
<path d="M5390 8270 c-15 -29 -3 -59 26 -66 30 -8 54 11 54 40 0 46 -59 64
-80 26z"/>
<path d="M4880 8145 l0 -45 59 0 58 0 8 -182 c4 -101 8 -184 8 -185 1 0 23 1
50 4 l47 6 0 183 0 184 60 0 60 0 0 40 0 40 -175 0 -175 0 0 -45z"/>
<path d="M4605 8158 c-71 -11 -132 -22 -134 -24 -2 -1 12 -102 30 -223 31
-206 34 -221 53 -221 35 0 256 37 262 43 11 10 -6 77 -19 76 -7 0 -47 -6 -90
-13 -43 -7 -80 -10 -81 -7 -2 3 -7 27 -11 52 -8 54 -8 54 88 64 67 7 67 7 67
39 0 51 -7 54 -93 43 -42 -6 -79 -8 -81 -6 -2 2 -6 23 -10 45 l-6 42 83 12
c45 7 84 14 87 16 8 4 -1 84 -9 83 -3 -1 -64 -10 -136 -21z"/>
<path d="M5365 8147 c-6 -39 -45 -392 -45 -411 0 -10 16 -15 50 -18 l50 -3 5
40 c11 82 45 408 43 410 -2 1 -24 5 -50 8 -47 6 -47 6 -53 -26z"/>
<path d="M4278 8094 l-47 -15 -6 -57 c-3 -31 -9 -78 -13 -104 l-7 -48 -65 80
c-40 50 -70 78 -79 75 -7 -3 -34 -10 -58 -17 l-44 -11 113 -116 c114 -116 114
-116 137 -198 l23 -81 45 13 c25 8 47 15 49 17 2 2 -8 40 -21 83 -14 44 -25
90 -25 103 0 19 25 143 55 270 6 25 7 25 -57 6z"/>
<path d="M5803 7874 c-145 -214 -142 -200 -58 -218 27 -5 33 -2 62 43 l32 49
58 -17 58 -17 5 -63 5 -64 45 -13 c25 -8 48 -14 53 -14 4 0 6 107 5 237 l-3
237 -60 18 c-33 10 -62 18 -65 18 -3 -1 -64 -88 -137 -196z m169 9 c-2 -49 -5
-89 -6 -90 -2 -2 -78 19 -85 23 -3 3 88 154 93 154 1 0 0 -39 -2 -87z"/>
<path d="M3746 8024 c-30 -30 -13 -74 29 -74 42 0 59 44 29 74 -8 9 -22 16
-29 16 -7 0 -21 -7 -29 -16z"/>
<path d="M3800 7923 c-19 -8 -36 -16 -38 -18 -4 -4 167 -396 177 -407 9 -10
91 22 91 34 0 21 -176 408 -185 407 -5 0 -26 -7 -45 -16z"/>
<path d="M6297 7818 c-129 -244 -147 -282 -143 -294 6 -16 101 -69 161 -89
139 -46 243 -1 304 135 55 120 1 225 -157 304 -114 57 -103 61 -165 -56z m212
-74 c32 -40 28 -108 -8 -165 -48 -77 -121 -96 -203 -53 l-28 15 26 52 c15 28
46 89 71 134 l44 83 39 -20 c21 -11 48 -31 59 -46z"/>
<path d="M3475 7756 c-38 -19 -85 -48 -103 -63 l-34 -28 112 -190 c62 -105
114 -191 116 -193 4 -6 84 43 84 51 0 5 -19 40 -42 79 -40 67 -41 71 -23 84
36 26 66 17 127 -42 l58 -56 38 23 c20 12 41 25 45 29 12 11 -121 130 -153
136 l-28 6 15 36 c30 72 -19 150 -99 159 -35 4 -56 -2 -113 -31z m118 -88 c17
-23 19 -31 9 -53 -6 -14 -26 -34 -44 -45 -36 -21 -30 -25 -77 52 l-22 37 33
21 c42 26 76 22 101 -12z"/>
<path d="M4845 7589 c-362 -29 -743 -146 -1052 -322 -720 -411 -1192 -1129
-1283 -1952 -15 -135 -12 -447 5 -582 72 -566 310 -1061 703 -1465 405 -416
888 -664 1472 -755 162 -25 558 -25 720 0 584 91 1067 339 1472 755 363 372
593 824 685 1342 31 176 43 511 24 692 -111 1071 -879 1958 -1920 2218 -279
69 -548 92 -826 69z m239 -507 c41 -19 87 -52 121 -86 55 -55 80 -101 28 -50
-44 42 -131 78 -200 82 -251 17 -423 -245 -312 -475 29 -60 117 -137 181 -159
109 -38 230 -16 322 58 27 22 35 25 28 11 -20 -37 -113 -115 -170 -141 -51
-24 -68 -27 -172 -27 -104 0 -120 3 -173 27 -271 127 -328 494 -107 690 91 81
172 109 302 104 71 -3 98 -9 152 -34z m361 -244 l39 -55 73 23 c44 14 71 18
67 11 -4 -7 -22 -33 -41 -58 -18 -26 -33 -51 -33 -56 0 -5 18 -35 41 -66 22
-32 36 -57 31 -57 -5 0 -35 9 -67 20 -32 11 -62 20 -66 20 -4 0 -25 -25 -46
-55 -21 -30 -41 -55 -45 -55 -5 0 -8 33 -8 73 l0 72 -65 19 c-36 10 -67 22
-70 26 -2 3 27 16 66 29 l69 22 0 75 c0 41 3 73 8 70 4 -2 25 -29 47 -58z
m-1251 -783 l37 -25 806 0 c804 0 807 0 829 21 12 11 40 23 61 26 122 16 182
-133 85 -213 l-25 -20 157 -675 c86 -371 159 -682 162 -692 5 -16 1 -18 -32
-15 l-38 3 -128 570 c-70 314 -132 594 -138 623 -11 52 -34 70 -44 35 -2 -10
-64 -291 -138 -625 l-133 -608 -37 0 c-24 0 -38 5 -38 13 0 6 72 318 159 692
l158 679 -28 23 -27 23 -402 0 -401 0 30 -37 31 -38 0 -922 0 -922 43 -3 c39
-3 42 -5 45 -35 3 -33 3 -33 -42 -33 l-46 0 0 -160 c0 -153 1 -160 20 -160 16
0 20 -7 20 -30 0 -29 -1 -30 -51 -30 -105 0 -119 27 -119 230 l0 150 -45 0
c-43 0 -45 1 -45 30 0 29 2 30 45 30 l45 0 0 928 0 928 25 34 c14 19 25 35 25
37 0 2 -179 3 -397 3 l-398 -1 -28 -23 -29 -23 157 -674 c86 -371 159 -682
161 -691 4 -15 -1 -18 -30 -18 -43 0 -21 -76 -180 637 -150 672 -135 613 -151
613 -15 0 -5 43 -161 -667 l-128 -583 -38 0 c-21 0 -38 4 -38 8 0 5 71 316
159 692 l159 683 -28 24 c-39 32 -55 83 -40 127 27 81 112 110 184 61z m384
-1657 c-40 -73 -142 -172 -216 -211 -181 -94 -399 -73 -559 55 -43 34 -113
119 -139 170 l-15 28 476 0 476 0 -23 -42z m1832 36 c0 -4 -21 -37 -46 -75
-54 -81 -117 -138 -199 -178 -77 -38 -132 -50 -225 -51 -146 0 -258 46 -361
149 -55 55 -109 132 -109 156 0 3 212 5 470 5 259 0 470 -3 470 -6z m-2386
-413 c304 -53 579 -190 792 -393 99 -95 127 -138 47 -70 -69 57 -200 143 -291
190 -202 105 -525 172 -831 172 l-106 0 -84 57 -84 58 39 7 c77 13 394 0 518
-21z m2575 21 l44 -7 -80 -56 -79 -56 -170 -6 c-454 -16 -728 -104 -1027 -331
-106 -80 -93 -51 25 59 235 218 566 361 909 394 105 10 320 12 378 3z m-2528
-237 c398 -53 738 -221 945 -467 l39 -48 43 55 c85 109 249 232 405 305 289
135 623 192 939 161 123 -12 268 -38 281 -50 4 -4 -25 -28 -65 -52 l-73 -45
-125 14 c-183 20 -472 20 -595 -2 -255 -43 -555 -191 -751 -370 l-61 -55 -19
21 c-32 35 -176 144 -260 196 -176 110 -343 175 -529 208 -124 22 -422 23
-600 1 l-120 -14 -73 45 c-40 25 -70 48 -65 53 11 11 151 38 248 48 128 13
321 12 436 -4z m110 -226 c324 -33 613 -152 819 -337 l54 -49 73 61 c372 310
869 406 1403 271 115 -29 282 -83 293 -94 5 -5 -38 -36 -95 -69 l-103 -60
-115 33 c-313 90 -669 105 -898 39 -153 -44 -313 -147 -466 -299 l-90 -90 -96
95 c-92 92 -230 194 -331 246 -226 114 -648 118 -1028 9 l-114 -32 -104 60
c-57 33 -100 64 -96 68 16 15 268 89 386 114 211 44 334 52 508 34z"/>
<path d="M4084 5985 c-15 -23 -15 -27 0 -50 28 -43 86 -26 86 25 0 51 -58 68
-86 25z"/>
<path d="M5907 5992 c-22 -24 -21 -45 1 -65 23 -21 46 -22 66 -1 30 30 9 84
-33 84 -10 0 -25 -8 -34 -18z"/>
<path d="M6732 7452 l-192 -137 37 -32 c21 -18 41 -33 44 -33 3 0 27 16 52 35
l47 36 50 -38 c27 -20 50 -42 50 -48 0 -5 -8 -32 -19 -60 l-19 -50 44 -33 44
-33 9 23 c4 13 40 111 79 219 40 107 72 199 72 205 0 7 -54 51 -94 76 -6 3
-98 -55 -204 -130z m169 -39 c-15 -38 -31 -76 -34 -86 -6 -16 -11 -15 -46 14
l-40 31 67 53 c37 30 70 54 73 54 4 1 -5 -29 -20 -66z"/>
<path d="M3138 7529 l-38 -31 83 -96 c118 -138 127 -151 127 -184 0 -41 -14
-63 -49 -77 -44 -19 -77 4 -177 121 -48 57 -92 109 -99 116 -9 10 -19 5 -50
-21 l-39 -34 98 -117 c57 -67 117 -127 141 -141 74 -44 150 -29 217 41 63 67
73 121 35 196 -21 41 -195 258 -207 258 -3 -1 -22 -14 -42 -31z"/>
<path d="M7092 7154 l-162 -156 97 -103 98 -104 33 32 32 31 -60 61 c-58 58
-70 80 -51 87 5 2 63 55 129 120 l120 116 -30 36 c-16 20 -33 36 -37 36 -4 0
-80 -70 -169 -156z"/>
<path d="M2726 7146 c-14 -19 -26 -36 -26 -39 0 -2 29 -27 65 -56 l65 -53 -20
-26 c-10 -15 -35 -45 -53 -67 l-34 -39 -64 52 c-35 29 -67 52 -71 52 -3 0 -20
-17 -36 -38 l-30 -37 175 -143 c188 -155 180 -152 223 -92 l19 27 -69 57 c-39
31 -70 60 -70 64 0 4 23 35 51 69 l51 62 71 -59 c39 -33 73 -60 76 -60 11 1
61 73 56 80 -9 15 -335 280 -344 280 -5 0 -20 -15 -35 -34z"/>
<path d="M7365 6859 c-99 -71 -179 -134 -177 -141 2 -6 37 -59 79 -117 42 -58
78 -108 79 -109 4 -6 64 41 64 50 0 5 -23 40 -51 79 -28 38 -50 71 -48 72 2 2
21 15 41 30 20 15 39 27 42 27 3 0 26 -29 51 -65 49 -68 50 -69 99 -32 18 13
17 17 -28 77 -25 35 -46 67 -46 71 0 10 55 49 68 49 6 0 31 -29 57 -65 25 -36
49 -65 53 -65 4 0 20 10 36 23 l29 23 -77 107 c-42 58 -80 108 -84 111 -4 2
-88 -54 -187 -125z"/>
<path d="M2370 6666 c-16 -30 -30 -58 -30 -64 0 -5 53 -61 118 -123 64 -62
108 -109 97 -105 -29 11 -267 66 -287 66 -15 0 -42 -40 -76 -111 -3 -6 369
-239 381 -239 8 0 47 61 47 72 0 4 -65 46 -145 93 -80 47 -145 87 -145 88 0 1
58 -12 128 -29 71 -17 147 -35 170 -39 40 -6 42 -6 59 29 l17 37 -124 125
-125 126 134 -67 c191 -95 177 -92 202 -44 11 23 17 45 12 49 -7 7 -164 81
-340 161 l-62 28 -31 -53z"/>
<path d="M7743 6622 l-31 -17 23 -45 c13 -25 24 -50 25 -57 0 -7 -72 -49 -161
-94 -88 -44 -159 -84 -157 -87 31 -62 43 -82 49 -82 4 0 77 36 162 80 84 44
157 80 160 80 4 0 18 -22 32 -50 14 -27 30 -50 35 -50 5 0 23 8 39 18 l29 18
-76 149 c-42 81 -81 150 -87 151 -5 2 -24 -5 -42 -14z"/>
<path d="M2096 6073 c-9 -26 -14 -48 -12 -50 2 -2 61 -21 132 -42 71 -21 144
-45 162 -55 82 -43 55 -146 -38 -146 -20 0 -96 18 -170 40 -74 21 -135 38
-136 37 0 -1 -8 -23 -16 -48 l-16 -46 146 -43 c161 -48 222 -54 274 -23 43 25
78 89 85 156 11 108 -44 163 -209 211 -51 14 -114 33 -140 40 l-47 15 -15 -46z"/>
<path d="M7860 5954 c-113 -30 -210 -56 -216 -59 -18 -6 11 -128 47 -203 34
-70 65 -92 128 -92 48 0 96 36 106 80 l7 30 25 -20 c39 -31 98 -27 134 9 26
26 29 36 29 90 0 36 -10 91 -25 140 -14 45 -27 81 -28 80 -1 0 -94 -25 -207
-55z m174 -80 c3 -9 6 -33 6 -54 0 -67 -64 -80 -95 -20 -25 48 -20 67 23 78
53 14 59 14 66 -4z m-170 -75 c16 -99 -82 -134 -120 -44 -22 52 -18 61 29 72
78 19 84 18 91 -28z"/>
<path d="M1968 5573 c-7 -16 -12 -67 -12 -114 -1 -78 2 -90 29 -135 79 -127
293 -144 379 -31 35 45 56 115 56 181 0 65 -7 74 -50 69 l-35 -5 -1 -56 c-1
-78 -24 -119 -80 -144 -34 -14 -56 -18 -87 -13 -104 17 -150 90 -123 194 l14
53 -34 14 c-44 18 -43 18 -56 -13z"/>
<path d="M7730 5493 c0 -10 3 -35 6 -55 6 -35 9 -37 53 -43 26 -3 52 -10 59
-14 7 -4 13 -35 14 -70 l3 -63 -52 -20 c-52 -20 -53 -21 -53 -62 0 -22 4 -47
8 -54 7 -9 61 9 223 76 l214 88 -4 65 c-2 35 -7 67 -12 70 -5 3 -103 25 -217
48 -114 23 -215 45 -224 47 -13 4 -18 0 -18 -13z m333 -140 c26 -3 47 -9 47
-12 0 -10 -149 -63 -160 -56 -6 3 -10 25 -10 47 l0 41 38 -7 c20 -4 58 -9 85
-13z"/>
<path d="M7760 4961 l0 -49 73 -7 c52 -5 78 -13 95 -28 l22 -21 -102 -50 -103
-51 -3 -59 -3 -58 135 71 136 71 87 -79 c58 -53 90 -75 95 -68 4 7 8 35 8 62
l-1 50 -89 69 c-50 38 -90 71 -90 73 0 2 42 1 94 -3 92 -6 93 -6 99 17 4 13 7
36 7 52 0 21 -5 27 -22 27 -13 0 -104 7 -203 15 -258 21 -235 24 -235 -34z"/>
<path d="M2327 4943 l-27 -4 6 -94 7 -93 -51 -3 c-58 -4 -62 0 -62 61 0 20 -3
52 -6 69 -6 30 -9 32 -43 29 l-36 -3 0 -85 0 -85 -41 -3 c-39 -3 -42 -1 -48
29 -3 17 -6 49 -6 69 0 60 -7 70 -51 70 -25 0 -39 -5 -39 -12 0 -7 5 -70 11
-140 l12 -128 26 0 c42 1 422 38 426 42 4 4 -12 201 -21 256 -3 17 -10 31 -17
31 -7 -1 -24 -4 -40 -6z"/>
<path d="M7721 4563 c-17 -61 -14 -68 40 -97 55 -31 53 -22 28 -118 -10 -38
-10 -38 -62 -38 -29 0 -57 -4 -63 -8 -11 -7 -36 -93 -29 -101 3 -2 96 1 207 8
112 6 217 11 234 11 29 0 31 2 46 67 9 38 16 69 15 69 -1 1 -90 55 -197 119
-107 64 -198 119 -202 121 -4 3 -12 -12 -17 -33z m248 -208 l73 -40 -87 -3
c-48 -2 -89 -1 -92 2 -7 7 17 88 25 84 4 -2 40 -21 81 -43z"/>
<path d="M1974 4475 c3 -9 9 -34 12 -56 7 -43 -4 -38 144 -62 l75 -13 -83 -59
-84 -60 6 -43 c11 -81 12 -80 135 28 112 98 115 100 192 116 43 10 83 20 89
24 16 10 -8 103 -25 97 -6 -3 -49 -13 -96 -22 l-84 -18 -125 37 c-69 20 -134
39 -144 43 -15 4 -18 2 -12 -12z"/>
<path d="M2325 4074 c-110 -40 -204 -75 -210 -77 -10 -4 10 -83 24 -91 4 -3
102 29 218 71 l210 76 -16 43 c-9 24 -19 45 -21 47 -3 2 -95 -29 -205 -69z"/>
<path d="M7582 4078 l-19 -43 41 -19 c23 -11 89 -41 148 -66 l107 -47 -181
-14 -182 -14 -23 -40 c-12 -22 -23 -45 -23 -51 0 -10 409 -200 414 -192 10 17
36 81 34 83 -8 7 -200 90 -243 106 l-50 18 55 0 c30 1 112 6 181 12 l126 12
22 44 c11 24 21 49 21 56 0 7 -89 53 -197 102 -109 48 -201 90 -205 92 -4 2
-16 -16 -26 -39z"/>
<path d="M2504 3855 c-47 -76 -83 -125 -93 -125 -9 0 -61 9 -116 19 -55 11
-101 18 -103 16 -2 -1 8 -26 22 -54 29 -55 19 -52 176 -72 47 -6 86 -12 87
-13 1 -1 -37 -22 -86 -46 l-89 -43 21 -44 c11 -23 24 -43 29 -43 10 0 398 201
398 206 0 9 -41 84 -45 84 -3 0 -32 -13 -65 -30 -58 -30 -104 -38 -114 -22 -3
5 22 50 54 101 l60 92 -25 49 c-14 28 -27 50 -29 50 -2 0 -39 -56 -82 -125z"/>
<path d="M2028 3959 c-45 -26 -5 -104 41 -80 36 20 36 62 0 81 -21 12 -20 12
-41 -1z"/>
<path d="M7325 3589 c-33 -51 -68 -104 -78 -119 l-18 -28 34 -21 c19 -12 37
-21 39 -21 3 0 26 32 52 70 25 39 49 70 52 70 3 0 71 -43 150 -95 80 -52 149
-95 153 -95 5 0 20 17 34 39 l26 39 -190 126 c-104 69 -190 126 -191 126 -2 0
-30 -41 -63 -91z"/>
<path d="M2748 3523 c-53 -69 -68 -95 -68 -122 0 -17 -3 -18 -36 -10 -71 20
-141 -26 -151 -99 -7 -51 17 -103 88 -190 60 -74 26 -85 259 87 l159 118 -30
41 -30 41 -71 -52 -70 -51 -19 23 c-28 35 -24 54 30 124 l50 65 -30 41 c-17
22 -32 41 -33 41 -2 0 -23 -26 -48 -57z m-47 -244 c16 -17 29 -34 29 -38 0
-10 -85 -71 -98 -71 -13 0 -52 63 -52 84 0 25 37 56 66 56 16 0 37 -12 55 -31z"/>
<path d="M7138 3335 c-16 -18 -28 -35 -28 -38 0 -8 337 -287 347 -287 4 0 21
16 37 36 24 30 26 38 15 49 -39 36 -332 275 -338 274 -3 0 -18 -15 -33 -34z"/>
<path d="M3037 3148 c-43 -11 -111 -70 -212 -183 l-68 -76 29 -30 c15 -16 32
-29 38 -29 5 0 62 52 126 115 100 98 121 115 149 115 37 0 81 -38 81 -70 0
-35 -18 -59 -126 -176 l-103 -111 32 -31 c18 -18 36 -32 40 -32 10 0 184 181
214 223 55 74 50 156 -12 220 -61 62 -120 83 -188 65z"/>
<path d="M6988 3126 c-58 -16 -120 -57 -163 -111 -65 -80 -66 -76 21 -168 42
-45 79 -83 83 -84 3 -2 33 21 65 50 l59 53 -23 32 -23 31 -30 -21 -29 -21 -31
32 c-36 36 -33 51 23 89 62 42 144 24 194 -41 64 -84 35 -171 -83 -247 -23
-15 -23 -17 -7 -48 20 -39 32 -40 83 -3 158 114 184 282 61 397 -64 61 -126
79 -200 60z"/>
<path d="M6622 2858 l-43 -30 24 -31 c13 -18 72 -101 131 -184 59 -84 109
-153 112 -153 15 0 83 54 77 62 -6 11 -254 362 -256 365 -1 0 -21 -12 -45 -29z"/>
<path d="M3400 2695 l-102 -154 -42 28 c-22 15 -46 31 -53 34 -10 6 -61 -59
-52 -67 2 -2 67 -45 143 -96 l140 -93 23 29 c12 16 23 32 23 36 0 4 -21 21
-46 38 -30 21 -43 37 -40 47 3 8 49 77 101 153 l95 138 -33 24 c-17 13 -37 27
-43 31 -7 4 -52 -54 -114 -148z"/>
<path d="M2757 2792 c-30 -33 -15 -72 28 -72 44 0 63 60 26 80 -27 14 -35 13
-54 -8z"/>
<path d="M7244 2731 c-25 -11 -74 -67 -74 -86 0 -8 5 -26 12 -40 11 -24 12
-24 30 -9 10 10 18 27 18 39 0 28 24 49 49 42 23 -6 60 28 45 43 -15 14 -57
20 -80 11z"/>
<path d="M2856 2694 c-19 -18 -20 -28 -6 -55 20 -37 80 -18 80 26 0 42 -44 59
-74 29z"/>
<path d="M5003 2196 c-63 -29 -90 -115 -54 -173 54 -86 179 -78 217 14 43 101
-63 203 -163 159z"/>
<path d="M1371 8449 c-59 -11 -81 -33 -81 -79 0 -66 21 -75 168 -71 142 3 170
12 209 71 28 40 28 45 3 70 -18 18 -32 20 -137 19 -65 -1 -138 -5 -162 -10z"/>
<path d="M8730 8345 c-12 -14 -29 -146 -31 -242 -2 -71 64 -153 111 -138 28 9
36 34 51 155 13 117 7 194 -17 221 -21 24 -96 26 -114 4z"/>
<path d="M2076 8258 c-28 -156 -37 -198 -44 -198 -21 -1 -274 -39 -277 -42 -2
-2 54 -35 124 -72 l127 -69 -22 -126 c-13 -69 -23 -134 -24 -144 0 -13 34 13
106 80 58 54 109 97 112 96 4 -1 61 -31 127 -67 66 -35 121 -63 123 -61 2 2
-24 61 -58 132 l-61 129 107 105 106 106 -128 -18 c-71 -10 -138 -18 -150 -19
-17 0 -32 24 -83 130 -34 72 -63 130 -65 130 -2 0 -11 -42 -20 -92z"/>
<path d="M7950 8220 c-51 -104 -69 -130 -85 -130 -11 1 -78 9 -150 19 l-130
18 109 -104 109 -103 -28 -63 c-15 -34 -43 -93 -62 -131 -19 -37 -33 -70 -31
-71 2 -2 61 27 131 64 l127 69 111 -106 c62 -59 109 -98 106 -87 -14 47 -49
266 -44 277 3 7 59 42 126 77 66 36 118 67 116 69 -4 4 -243 41 -271 42 -7 0
-21 51 -34 123 -34 189 -26 186 -100 37z"/>
<path d="M1270 8239 c-91 -10 -156 -34 -171 -61 -15 -28 5 -97 31 -106 32 -12
264 13 289 30 30 22 71 78 71 99 0 46 -59 56 -220 38z"/>
<path d="M8928 8120 c-10 -6 -19 -25 -22 -43 -3 -17 -12 -76 -21 -129 -17 -97
-17 -98 5 -143 24 -50 58 -79 87 -73 30 5 51 66 69 195 15 117 15 124 -2 160
-17 34 -24 38 -59 40 -22 2 -48 -2 -57 -7z"/>
<path d="M1071 8004 c-94 -19 -149 -46 -157 -79 -8 -32 13 -85 38 -94 22 -8
248 23 277 38 24 13 66 68 75 97 16 54 -74 69 -233 38z"/>
<path d="M9107 7877 c-19 -13 -67 -206 -67 -268 0 -53 51 -121 88 -117 20 2
32 13 45 40 20 40 57 219 57 274 0 64 -74 107 -123 71z"/>
<path d="M975 7775 c-121 -26 -179 -48 -208 -76 -21 -22 -27 -34 -22 -51 14
-46 35 -68 64 -68 27 0 203 33 244 46 27 9 77 83 77 115 0 49 -43 59 -155 34z"/>
<path d="M9272 7623 c-16 -13 -33 -54 -58 -141 l-36 -124 29 -56 c25 -50 32
-57 61 -60 30 -3 34 0 53 43 26 58 69 227 69 270 0 65 -72 106 -118 68z"/>
<path d="M881 7539 c-66 -13 -234 -67 -252 -82 -9 -6 -21 -22 -28 -35 -18 -33
14 -96 50 -100 38 -4 247 53 270 74 24 22 59 86 59 108 0 14 -37 47 -50 45 -3
-1 -25 -5 -49 -10z"/>
<path d="M9403 7358 c-17 -23 -76 -202 -80 -243 -6 -55 32 -129 68 -133 38 -4
57 25 100 150 44 127 50 195 21 221 -22 20 -95 23 -109 5z"/>
<path d="M640 7251 c-58 -20 -115 -43 -127 -49 -29 -16 -53 -51 -53 -78 0 -30
37 -74 64 -74 29 0 222 65 253 86 36 23 68 100 54 130 -15 35 -64 31 -191 -15z"/>
<path d="M9533 7088 c-9 -15 -69 -157 -89 -211 -17 -45 -7 -98 27 -141 48 -61
94 -9 163 182 33 93 34 145 4 166 -27 19 -94 21 -105 4z"/>
<path d="M560 7001 c-150 -56 -220 -104 -220 -152 0 -24 48 -79 68 -79 10 0
69 21 132 48 123 51 153 77 166 148 13 70 -27 79 -146 35z"/>
<path d="M1064 6944 c17 -56 66 -251 66 -266 0 -10 -42 -43 -115 -89 -63 -39
-117 -75 -120 -79 -3 -4 52 -11 123 -15 70 -4 136 -11 147 -15 17 -6 27 -34
55 -149 l34 -141 53 132 c29 72 57 136 61 140 5 5 71 4 147 -2 76 -6 140 -9
142 -6 2 2 -46 45 -107 96 -60 50 -110 94 -110 96 0 2 24 65 54 139 30 74 53
135 51 135 -2 0 -58 -34 -125 -76 -66 -42 -126 -74 -133 -71 -6 3 -61 47 -121
98 -61 52 -106 84 -102 73z"/>
<path d="M8930 6859 c-58 -49 -109 -89 -115 -88 -5 0 -62 33 -125 73 -63 40
-116 70 -118 67 -1 -4 20 -63 48 -131 27 -68 50 -127 50 -132 0 -4 -50 -49
-110 -99 -61 -51 -108 -94 -106 -96 1 -2 67 1 146 7 78 6 143 10 144 8 2 -2
27 -63 56 -135 30 -73 56 -131 58 -129 2 3 19 64 37 136 18 72 36 134 39 137
3 4 61 10 129 15 67 4 133 9 146 11 19 1 -3 19 -102 80 -70 44 -127 84 -127
90 0 7 16 72 34 145 19 72 31 132 27 131 -3 0 -53 -40 -111 -90z"/>
<path d="M9665 6821 c-13 -5 -42 -54 -79 -130 -58 -119 -59 -122 -47 -164 28
-95 70 -114 116 -53 41 53 115 231 115 274 0 46 -8 58 -43 71 -32 13 -35 13
-62 2z"/>
<path d="M403 6705 c-108 -54 -163 -99 -163 -131 0 -30 31 -74 56 -80 19 -5
56 8 142 48 105 48 119 58 136 93 11 21 20 57 20 80 1 40 1 40 -39 43 -32 2
-62 -8 -152 -53z"/>
<path d="M9749 6528 c-9 -7 -42 -59 -74 -116 -55 -98 -57 -106 -52 -154 13
-105 64 -129 118 -55 45 61 129 235 129 268 0 52 -81 89 -121 57z"/>
<path d="M365 6452 c-104 -56 -182 -108 -194 -131 -18 -33 -12 -70 14 -96 30
-31 55 -31 103 -1 21 13 65 37 97 54 75 38 101 65 115 123 24 96 -20 113 -135
51z"/>
<path d="M9769 6159 c-83 -124 -92 -146 -78 -208 19 -91 60 -94 129 -9 52 65
115 178 125 225 9 44 -28 83 -79 83 -33 0 -39 -5 -97 -91z"/>
<path d="M315 6182 c-127 -70 -225 -152 -225 -188 0 -24 28 -71 45 -78 34 -13
57 -4 154 59 112 72 131 95 139 160 8 79 -27 94 -113 47z"/>
<path d="M9889 5948 c-9 -7 -47 -56 -85 -108 -67 -92 -69 -95 -68 -152 1 -62
21 -98 54 -98 35 0 179 182 206 261 17 47 8 76 -27 94 -34 18 -60 19 -80 3z"/>
<path d="M272 5905 c-55 -31 -148 -104 -191 -149 -44 -45 -46 -89 -7 -123 15
-12 35 -23 45 -23 20 0 182 114 220 154 18 19 26 41 29 81 7 87 -19 104 -96
60z"/>
<path d="M9875 5588 c-33 -39 -71 -85 -85 -102 -47 -57 -27 -186 29 -186 20 0
134 119 183 190 52 75 58 111 25 144 -18 18 -37 26 -59 26 -30 0 -41 -9 -93
-72z"/>
<path d="M222 5612 c-71 -47 -178 -149 -196 -185 -20 -44 -9 -80 33 -102 17
-8 34 -15 39 -15 18 0 198 153 215 183 20 36 23 117 5 135 -19 19 -52 14 -96
-16z"/>
<path d="M1015 5315 c-44 -60 -83 -113 -87 -118 -4 -6 -60 8 -143 37 -75 26
-138 46 -140 44 -2 -2 35 -56 82 -121 l85 -118 -86 -116 c-47 -64 -84 -118
-82 -120 1 -1 64 17 139 41 l137 44 81 -114 c44 -63 85 -116 90 -119 5 -4 9
53 9 142 l0 148 128 39 c70 22 133 42 140 46 7 3 -51 28 -128 54 l-139 48 -3
146 -3 145 -80 -108z"/>
<path d="M9008 5273 l-3 -146 -139 -47 -139 -46 142 -44 141 -45 0 -147 c0
-82 3 -148 8 -148 4 1 44 54 90 119 l83 118 137 -43 c75 -24 138 -42 139 -40
2 2 -35 55 -82 119 l-86 116 85 118 c46 65 83 119 82 120 -1 2 -64 -18 -140
-43 -75 -25 -138 -45 -140 -43 -2 2 -40 55 -85 117 -46 61 -84 112 -87 112 -2
0 -5 -66 -6 -147z"/>
<path d="M9879 5272 l-99 -100 0 -61 c0 -47 4 -65 19 -80 30 -30 57 -16 139
68 128 132 157 195 110 238 -52 47 -62 43 -169 -65z"/>
<path d="M234 5345 c-69 -29 -234 -210 -234 -256 0 -32 44 -72 78 -72 24 0 48
16 119 82 95 88 112 115 113 174 0 69 -25 94 -76 72z"/>
<path d="M231 5059 c-28 -11 -151 -137 -191 -198 -36 -53 -38 -90 -8 -118 50
-45 62 -41 154 49 99 96 114 120 114 183 0 73 -22 101 -69 84z"/>
<path d="M9980 5063 c-27 -11 -185 -163 -197 -191 -19 -43 -16 -109 7 -132 28
-28 60 -13 151 70 79 72 139 150 139 181 0 39 -64 85 -100 72z"/>
<path d="M180 4712 c-79 -83 -137 -166 -146 -209 -8 -42 30 -83 78 -83 35 0
41 6 178 174 47 57 27 186 -29 186 -9 0 -45 -31 -81 -68z"/>
<path d="M9879 4695 c-105 -84 -129 -119 -129 -185 0 -107 59 -94 216 46 82
73 109 119 95 158 -9 23 -56 56 -79 56 -5 0 -51 -34 -103 -75z"/>
<path d="M228 4443 c-57 -62 -128 -168 -145 -215 -16 -48 -4 -81 36 -98 51
-21 71 -7 151 102 71 97 75 106 74 154 0 58 -24 104 -53 104 -10 0 -38 -21
-63 -47z"/>
<path d="M9854 4406 c-126 -91 -137 -105 -142 -174 -5 -66 10 -89 52 -78 36 9
143 84 210 146 49 47 59 62 59 90 0 36 -39 80 -72 80 -10 0 -58 -29 -107 -64z"/>
<path d="M280 4163 c-61 -70 -132 -192 -145 -250 -9 -44 28 -83 79 -83 33 0
39 5 97 91 83 124 92 147 79 206 -6 26 -16 53 -22 60 -19 24 -55 14 -88 -24z"/>
<path d="M9785 4102 c-111 -74 -137 -110 -133 -176 4 -50 25 -65 69 -49 73 28
217 128 252 175 23 30 18 67 -13 98 -33 33 -68 23 -175 -48z"/>
<path d="M339 3878 c-45 -62 -129 -236 -129 -269 0 -52 81 -89 121 -56 9 6 42
58 74 115 55 98 57 106 52 154 -13 105 -64 129 -118 56z"/>
<path d="M1205 3754 c-17 -75 -32 -140 -35 -144 -3 -5 -73 -14 -155 -22 l-150
-13 133 -78 c103 -61 132 -82 128 -95 -3 -9 -19 -74 -34 -145 -24 -106 -26
-125 -13 -115 9 7 52 44 96 82 44 39 88 76 97 84 16 13 30 7 140 -58 68 -40
126 -75 130 -77 4 -2 -20 59 -53 134 l-60 138 68 60 c37 33 87 78 111 100 l44
41 -128 -12 c-71 -7 -138 -13 -149 -13 -17 -1 -30 22 -74 127 -30 70 -57 130
-60 134 -4 4 -20 -53 -36 -128z"/>
<path d="M8815 3757 c-49 -115 -62 -137 -79 -136 -12 0 -79 6 -150 13 l-128
12 39 -36 c21 -19 71 -64 112 -100 l73 -65 -56 -129 c-31 -71 -54 -131 -52
-134 3 -2 54 26 114 62 60 36 116 68 124 71 8 3 56 -31 123 -89 60 -53 110
-94 111 -93 1 1 -13 66 -31 144 l-32 142 131 78 131 78 -125 12 c-69 6 -137
12 -151 12 -25 1 -28 6 -49 99 -12 53 -27 119 -34 147 l-12 49 -59 -137z"/>
<path d="M9795 3859 c-16 -11 -59 -35 -95 -54 -81 -41 -105 -67 -120 -126 -15
-58 -2 -89 36 -89 47 0 272 130 293 169 18 33 12 70 -14 96 -29 30 -59 31
-100 4z"/>
<path d="M425 3606 c-38 -50 -115 -230 -115 -270 0 -50 8 -64 44 -76 59 -19
75 -4 140 129 58 119 59 122 47 164 -28 95 -70 114 -116 53z"/>
<path d="M9632 3534 c-101 -48 -114 -57 -129 -91 -9 -21 -16 -56 -17 -78 -1
-40 -1 -40 38 -43 32 -3 62 8 153 54 108 54 163 98 163 130 0 24 -28 71 -45
78 -29 11 -48 5 -163 -50z"/>
<path d="M538 3353 c-43 -49 -118 -242 -118 -303 0 -29 6 -43 22 -54 27 -19
94 -21 105 -3 8 14 67 152 89 210 33 88 -47 208 -98 150z"/>
<path d="M9541 3264 c-120 -51 -126 -55 -152 -105 -32 -64 -21 -109 27 -109
29 0 153 44 225 81 60 30 99 69 99 100 0 27 -49 79 -73 78 -12 -1 -69 -21
-126 -45z"/>
<path d="M641 3074 c-28 -36 -91 -234 -91 -287 0 -30 6 -49 18 -60 22 -20 95
-23 109 -4 5 6 27 64 48 127 41 126 42 157 5 218 -25 40 -60 43 -89 6z"/>
<path d="M9418 2992 c-120 -42 -140 -56 -164 -117 -21 -57 -8 -85 40 -85 33 0
214 58 268 86 57 30 73 82 37 128 -27 34 -50 33 -181 -12z"/>
<path d="M759 2795 c-26 -58 -69 -227 -69 -270 0 -41 26 -73 65 -81 53 -10 72
16 111 154 l36 124 -29 56 c-25 50 -32 57 -61 60 -30 3 -34 0 -53 -43z"/>
<path d="M9282 2730 c-110 -29 -134 -44 -163 -102 -25 -48 -24 -64 4 -82 19
-13 31 -13 87 -1 83 17 220 62 241 78 35 27 41 55 22 95 -15 31 -23 37 -53 39
-19 1 -81 -11 -138 -27z"/>
<path d="M916 2568 c-26 -42 -66 -220 -66 -295 0 -63 74 -106 123 -70 19 13
67 206 67 268 0 49 -50 119 -85 119 -15 0 -30 -9 -39 -22z"/>
<path d="M1975 2495 c16 -90 35 -224 35 -247 0 -26 -11 -33 -127 -92 -76 -38
-122 -66 -113 -69 8 -3 73 -15 145 -27 71 -12 130 -22 131 -23 0 -1 9 -60 19
-132 10 -71 21 -135 24 -142 4 -7 37 46 75 118 52 100 72 129 84 125 10 -3 67
-12 127 -21 61 -9 119 -19 130 -22 12 -3 -13 29 -60 78 -44 46 -91 96 -103
110 l-23 27 65 131 66 131 -131 -66 -132 -66 -109 109 c-96 95 -108 104 -103
78z"/>
<path d="M8030 2415 l-103 -104 -128 65 c-71 35 -131 64 -135 64 -3 0 24 -57
60 -126 36 -69 66 -131 66 -137 0 -7 -46 -58 -102 -115 -100 -100 -102 -103
-68 -97 198 34 256 42 263 36 4 -4 36 -63 71 -131 37 -72 67 -118 70 -110 2 8
12 71 22 140 9 69 20 129 24 133 4 4 63 17 131 28 68 11 131 23 139 26 9 3
-37 31 -112 69 -107 54 -128 68 -128 87 0 12 9 78 20 147 11 68 18 125 17 127
-2 1 -50 -44 -107 -102z"/>
<path d="M9145 2481 c-131 -28 -134 -29 -165 -73 -38 -52 -40 -94 -4 -110 20
-9 44 -8 113 5 223 43 280 87 225 175 -18 27 -53 28 -169 3z"/>
<path d="M1075 2326 c-20 -30 -45 -167 -48 -256 -3 -85 17 -120 69 -120 50 0
72 15 78 53 3 17 12 75 21 128 18 108 11 144 -39 194 -32 32 -61 32 -81 1z"/>
<path d="M8988 2239 c-131 -19 -147 -26 -181 -72 -35 -46 -41 -72 -20 -92 15
-15 29 -17 108 -11 160 11 259 45 271 92 8 32 -17 90 -43 95 -10 3 -70 -3
-135 -12z"/>
<path d="M1258 2110 c-24 -15 -41 -107 -42 -236 -1 -131 10 -154 74 -154 61 0
71 15 81 121 15 152 14 174 -11 213 -22 37 -56 66 -75 66 -5 0 -18 -5 -27 -10z"/>
<path d="M8805 2004 c-66 -6 -129 -16 -141 -22 -25 -13 -74 -82 -74 -105 0 -9
12 -24 26 -34 23 -15 38 -15 151 -5 143 14 209 36 218 75 8 32 -18 93 -41 98
-11 3 -73 0 -139 -7z"/>
<path d="M1446 1887 c-24 -17 -35 -81 -36 -197 0 -155 27 -208 99 -194 48 10
58 35 64 164 6 133 -1 159 -57 208 -41 36 -45 37 -70 19z"/>
<path d="M8594 1781 c-122 -7 -150 -18 -184 -74 -25 -40 -25 -42 0 -67 18 -18
33 -20 129 -20 124 0 207 13 233 37 18 16 25 77 10 99 -10 15 -48 34 -64 32
-7 -1 -63 -4 -124 -7z"/>
<path d="M1640 1670 c-18 -18 -20 -33 -20 -129 0 -124 13 -207 37 -233 23 -25
84 -24 108 3 17 18 19 35 16 147 -3 142 -12 170 -71 209 -40 28 -45 28 -70 3z"/>
<path d="M6477 1548 c4 -57 8 -125 8 -152 l0 -49 -134 -55 c-74 -31 -131 -57
-125 -59 5 -2 70 -18 144 -36 l135 -33 11 -142 c6 -78 12 -144 15 -146 2 -3
24 28 48 67 25 40 59 95 77 123 l32 52 139 -33 c76 -18 140 -32 142 -30 1 2
-38 52 -88 111 -50 59 -91 110 -91 113 0 3 34 60 75 126 40 66 72 121 71 122
-2 2 -63 -21 -136 -52 -74 -30 -137 -52 -141 -48 -4 5 -48 57 -98 116 l-91
109 7 -104z"/>
<path d="M3539 1530 c-51 -61 -98 -109 -103 -106 -75 32 -260 105 -262 103 -1
-1 31 -56 72 -122 41 -66 74 -123 74 -127 0 -4 -41 -55 -90 -114 -50 -58 -89
-108 -88 -110 2 -2 67 12 143 31 77 18 140 33 141 32 43 -78 153 -246 157
-240 3 4 8 67 12 139 4 72 10 136 14 141 3 6 68 25 144 43 77 18 135 35 130
39 -4 4 -62 29 -128 56 -66 26 -124 51 -128 55 -4 4 -3 69 3 144 6 76 9 140 7
142 -3 3 -47 -45 -98 -106z"/>
<path d="M8275 1566 c-29 -12 -95 -78 -95 -94 0 -22 31 -45 71 -53 62 -12 227
-11 272 2 20 5 44 20 52 33 20 29 9 83 -19 101 -30 19 -243 27 -281 11z"/>
<path d="M1843 1464 c-15 -23 -15 -38 -5 -151 13 -137 36 -207 71 -218 29 -9
91 13 99 36 10 25 -12 259 -26 285 -13 25 -82 74 -105 74 -9 0 -24 -12 -34
-26z"/>
<path d="M8018 1356 c-44 -31 -61 -59 -53 -87 9 -28 37 -36 163 -50 183 -20
236 -1 230 82 -4 58 -22 66 -178 74 -123 6 -126 6 -162 -19z"/>
<path d="M5010 1221 l-45 -141 -147 0 c-82 0 -148 -3 -147 -7 0 -5 53 -45 119
-90 l118 -83 -35 -112 c-19 -62 -39 -123 -44 -136 -5 -14 -8 -27 -5 -29 2 -3
56 34 120 82 l115 87 118 -85 c65 -47 119 -82 121 -78 1 3 -18 67 -43 140 -25
74 -44 135 -42 136 1 1 54 40 117 86 l115 84 -147 3 -146 3 -26 72 c-15 39
-37 103 -49 141 l-23 69 -44 -142z"/>
<path d="M2076 1295 c-20 -20 -21 -100 -2 -206 19 -104 47 -166 80 -175 33 -8
86 13 95 38 8 22 -23 248 -38 277 -13 24 -68 66 -97 75 -14 4 -28 1 -38 -9z"/>
<path d="M7800 1187 c-49 -26 -77 -64 -67 -91 10 -27 65 -44 195 -62 116 -15
123 -15 159 2 33 17 38 24 41 59 5 62 -10 73 -118 90 -52 8 -111 17 -130 21
-26 4 -47 -1 -80 -19z"/>
<path d="M2298 1104 c-9 -20 -8 -44 5 -113 43 -223 87 -280 175 -225 28 18 28
42 2 170 -28 134 -26 131 -72 165 -52 37 -94 39 -110 3z"/>
<path d="M7531 1009 c-55 -39 -55 -75 1 -102 40 -20 219 -57 274 -57 64 0 107
74 71 123 -13 19 -206 67 -268 67 -24 0 -50 -10 -78 -31z"/>
<path d="M2546 957 c-13 -19 -13 -31 -1 -87 17 -83 62 -220 78 -241 27 -35 55
-41 95 -22 49 24 50 43 14 182 -32 119 -45 142 -104 172 -48 25 -64 24 -82 -4z"/>
<path d="M7299 873 c-47 -24 -54 -32 -57 -61 -3 -30 0 -34 43 -53 58 -26 227
-69 270 -69 41 0 73 26 81 65 10 52 -17 72 -151 110 -66 19 -123 35 -126 35
-3 0 -30 -12 -60 -27z"/>
<path d="M2808 829 c-12 -6 -18 -22 -18 -44 0 -32 58 -213 86 -267 17 -33 51
-58 80 -58 30 0 74 37 74 63 0 33 -70 239 -89 261 -16 19 -87 56 -106 55 -5 0
-18 -4 -27 -10z"/>
<path d="M7030 738 c-33 -17 -46 -30 -48 -49 -4 -38 25 -57 150 -100 127 -44
195 -50 221 -21 20 22 23 95 5 109 -21 16 -231 83 -258 83 -14 0 -46 -10 -70
-22z"/>
<path d="M3062 698 c-18 -18 -15 -49 14 -130 54 -150 107 -228 155 -228 24 0
79 48 79 68 0 21 -86 230 -102 250 -17 20 -84 52 -111 52 -12 0 -28 -5 -35
-12z"/>
<path d="M6787 636 c-71 -26 -96 -66 -59 -98 48 -43 241 -118 302 -118 47 0
70 27 70 81 0 42 -7 49 -75 74 -27 10 -70 28 -95 40 -63 31 -99 37 -143 21z"/>
<path d="M3327 593 c-4 -3 -7 -23 -7 -43 0 -48 100 -250 142 -285 34 -29 48
-31 88 -10 50 26 49 53 -12 183 -51 110 -57 118 -98 139 -44 22 -100 30 -113
16z"/>
<path d="M6506 534 c-52 -19 -66 -32 -66 -60 0 -32 49 -67 169 -120 97 -42
159 -54 188 -36 19 12 34 61 27 89 -5 20 -30 36 -127 84 -66 32 -127 59 -136
58 -9 0 -34 -7 -55 -15z"/>
<path d="M3608 499 c-10 -5 -18 -21 -18 -35 0 -47 131 -273 170 -294 32 -17
70 -11 95 15 31 30 31 55 1 103 -13 21 -37 65 -54 97 -36 73 -64 100 -117 114
-48 13 -55 13 -77 0z"/>
<path d="M6217 450 c-71 -22 -77 -65 -14 -111 61 -45 235 -129 268 -129 52 0
89 81 57 121 -7 9 -58 41 -114 72 -103 58 -134 66 -197 47z"/>
<path d="M3883 419 c-27 -28 -8 -78 78 -205 50 -74 100 -124 125 -124 24 0 71
28 78 45 3 9 6 25 6 35 0 27 -125 216 -156 236 -33 22 -115 30 -131 13z"/>
<path d="M5946 389 c-87 -20 -88 -62 -4 -129 65 -52 178 -115 225 -125 44 -9
83 28 83 79 0 33 -5 39 -91 97 -85 57 -148 90 -166 88 -4 -1 -26 -5 -47 -10z"/>
<path d="M4161 356 c-8 -9 -11 -26 -7 -40 9 -36 84 -143 146 -210 47 -49 62
-59 90 -59 36 0 80 39 80 72 0 20 -114 182 -154 220 -34 32 -134 43 -155 17z"/>
<path d="M5650 343 c-32 -6 -60 -31 -60 -53 0 -36 182 -179 262 -207 48 -16
81 -4 98 36 21 51 7 71 -100 150 -102 74 -137 87 -200 74z"/>
<path d="M4452 318 c-31 -31 -5 -82 104 -204 73 -82 119 -109 158 -95 23 9 56
56 56 79 0 19 -152 198 -183 215 -36 20 -117 23 -135 5z"/>
<path d="M5354 314 c-32 -7 -57 -39 -49 -63 15 -47 213 -205 272 -217 42 -8
83 30 83 78 0 35 -4 39 -172 177 -29 23 -89 35 -134 25z"/>
<path d="M4740 290 c-28 -28 -13 -60 70 -151 72 -79 150 -139 181 -139 32 0
72 44 72 78 0 24 -16 48 -82 119 -45 48 -94 93 -109 100 -43 19 -109 16 -132
-7z"/>
<path d="M5031 281 c-30 -30 -16 -57 68 -139 132 -128 195 -157 238 -110 45
50 41 62 -49 154 -46 47 -95 92 -110 100 -41 21 -124 18 -147 -5z"/>
</g>
</svg>
